<?xml version="1.0" standalone="no"?>
<!DOCTYPE svg PUBLIC "-//W3C//DTD SVG 20010904//EN"
 "http://www.w3.org/TR/2001/REC-SVG-20010904/DTD/svg10.dtd">
<svg version="1.0" xmlns="http://www.w3.org/2000/svg"
 width="700.000000pt" height="700.000000pt" viewBox="0 0 700.000000 700.000000"
 preserveAspectRatio="xMidYMid meet">
<metadata>
Created by potrace 1.11, written by Peter Selinger 2001-2013
</metadata>
<g transform="translate(0.000000,700.000000) scale(0.100000,-0.100000)"
fill="#000000" stroke="none">
<path d="M4950 5680 c-277 -22 -424 -50 -459 -85 -28 -28 -34 -83 -11 -110 7
-9 59 -46 114 -83 122 -81 260 -210 339 -317 59 -80 132 -220 160 -305 25 -76
48 -201 41 -224 -12 -41 -45 -66 -87 -66 -34 0 -50 9 -125 73 -112 95 -183
142 -308 205 -187 94 -421 158 -619 169 -97 6 -102 5 -130 -19 l-29 -25 -7
-189 c-19 -484 -139 -899 -365 -1265 -62 -100 -103 -139 -144 -139 -106 0
-209 295 -260 745 -22 195 -40 514 -40 716 0 130 -1 139 -24 165 -29 34 -94
43 -224 32 -257 -22 -597 -192 -956 -476 -71 -56 -116 -60 -158 -13 -15 17
-28 39 -28 47 0 28 84 204 145 304 135 223 338 448 540 600 106 80 126 109
109 156 -14 40 -50 62 -141 84 l-82 20 -168 -26 c-212 -32 -475 -84 -668 -131
-112 -27 -162 -44 -195 -66 -69 -47 -356 -339 -450 -457 -344 -434 -549 -901
-636 -1450 -26 -162 -26 -642 -1 -810 54 -354 175 -711 341 -1011 77 -138 198
-318 298 -443 103 -128 363 -388 494 -493 530 -427 1167 -687 1879 -769 205
-24 605 -24 810 0 712 82 1349 342 1879 769 131 105 391 365 494 493 370 462
592 999 652 1574 13 123 13 450 0 565 -65 589 -279 1108 -650 1575 -153 192
-409 435 -625 595 -73 54 -87 61 -160 73 -101 16 -407 23 -545 12z m-4139
-1589 c48 -47 50 -80 14 -193 -27 -86 -60 -250 -70 -348 -4 -36 -16 -79 -26
-96 -24 -40 -87 -67 -135 -58 -37 7 -90 59 -100 98 -17 70 59 450 113 564 21
45 67 72 122 72 37 0 49 -6 82 -39z m-133 -1029 c33 -21 51 -62 68 -149 20
-105 65 -236 119 -342 49 -98 55 -142 29 -192 -19 -39 -91 -73 -131 -63 -57
14 -83 43 -143 167 -66 136 -100 236 -129 378 -22 106 -20 128 16 176 38 52
113 63 171 25z"/>
</g>
</svg>
